<?xml version="1.0" encoding="UTF-8"?>
<svg version="1.1" xmlns="http://www.w3.org/2000/svg" width="64" height="64">
<path d="M0 0 C0.83096191 -0.00945648 1.66192383 -0.01891296 2.51806641 -0.02865601 C3.41187012 -0.02258331 4.30567383 -0.01651062 5.2265625 -0.01025391 C6.14743652 -0.01312408 7.06831055 -0.01599426 8.01708984 -0.01895142 C9.96387344 -0.02099272 11.91067752 -0.01545824 13.85742188 -0.00292969 C16.84030949 0.01312303 19.82184211 -0.00277613 22.8046875 -0.02197266 C24.6953155 -0.01999024 26.58594265 -0.01614659 28.4765625 -0.01025391 C29.37036621 -0.0163266 30.26416992 -0.02239929 31.18505859 -0.02865601 C32.43150146 -0.01447128 32.43150146 -0.01447128 33.703125 0 C34.79874756 0.00358017 34.79874756 0.00358017 35.91650391 0.00723267 C38.43732304 0.50350104 39.32454845 1.3477153 40.8515625 3.38818359 C41.11309319 5.9759313 41.20114688 8.31718012 41.14453125 10.89990234 C41.14028641 11.62812698 41.13604156 12.35635162 41.13166809 13.10664368 C41.11488983 15.43003486 41.07724105 17.75255509 41.0390625 20.07568359 C41.02401447 21.65184293 41.01032627 23.22801588 40.99804688 24.80419922 C40.96498935 28.66586237 40.91321444 32.52687537 40.8515625 36.38818359 C40.18821899 35.77982666 40.18821899 35.77982666 39.51147461 35.15917969 C35.98153811 32.01230404 32.92865759 29.62112157 28.4140625 28.01318359 C27.54910156 27.69607422 26.68414062 27.37896484 25.79296875 27.05224609 C25.15230469 26.83310547 24.51164062 26.61396484 23.8515625 26.38818359 C23.8515625 25.39818359 23.8515625 24.40818359 23.8515625 23.38818359 C16.5915625 23.38818359 9.3315625 23.38818359 1.8515625 23.38818359 C1.8515625 24.37818359 1.8515625 25.36818359 1.8515625 26.38818359 C7.7915625 26.38818359 13.7315625 26.38818359 19.8515625 26.38818359 C19.5215625 28.36818359 19.1915625 30.34818359 18.8515625 32.38818359 C10.9315625 32.88318359 10.9315625 32.88318359 2.8515625 33.38818359 C2.8515625 34.04818359 2.8515625 34.70818359 2.8515625 35.38818359 C4.03234375 35.39076172 5.213125 35.39333984 6.4296875 35.39599609 C7.98701695 35.4335221 9.54430792 35.47266965 11.1015625 35.51318359 C11.87886719 35.51060547 12.65617187 35.50802734 13.45703125 35.50537109 C15.72686681 35.58297231 17.67269709 35.74122817 19.8515625 36.38818359 C22.0859375 39.06787109 22.0859375 39.06787109 23.8515625 42.38818359 C24.69502634 43.47850646 25.56564941 44.54835176 26.46191406 45.59570312 C27.25049805 46.51722168 28.03908203 47.43874023 28.8515625 48.38818359 C24.20682268 48.46234426 19.56242751 48.51678974 14.91723633 48.55297852 C13.33709714 48.56806454 11.75699981 48.5885361 10.17700195 48.61450195 C7.90565665 48.65089486 5.63486491 48.66791122 3.36328125 48.68115234 C2.30375496 48.70437813 2.30375496 48.70437813 1.2228241 48.72807312 C-3.69200788 48.72975932 -3.69200788 48.72975932 -5.83479309 47.12617493 C-7.44742625 44.99261242 -7.52794981 43.89337789 -7.53662109 41.23974609 C-7.54607758 40.40878418 -7.55553406 39.57782227 -7.5652771 38.72167969 C-7.55920441 37.82787598 -7.55313171 36.93407227 -7.546875 36.01318359 C-7.54974518 35.09230957 -7.55261536 34.17143555 -7.55557251 33.22265625 C-7.55761381 31.27587265 -7.55207933 29.32906857 -7.53955078 27.38232422 C-7.52349806 24.3994366 -7.53939722 21.41790398 -7.55859375 18.43505859 C-7.55661133 16.5444306 -7.55276768 14.65380345 -7.546875 12.76318359 C-7.55294769 11.86937988 -7.55902039 10.97557617 -7.5652771 10.0546875 C-7.55582062 9.22372559 -7.54636414 8.39276367 -7.53662109 7.53662109 C-7.53423431 6.80620605 -7.53184753 6.07579102 -7.52938843 5.32324219 C-6.68783977 1.04855522 -4.04755425 0.01322621 0 0 Z M1.8515625 14.38818359 C1.8515625 15.37818359 1.8515625 16.36818359 1.8515625 17.38818359 C11.7515625 17.38818359 21.6515625 17.38818359 31.8515625 17.38818359 C31.8515625 16.39818359 31.8515625 15.40818359 31.8515625 14.38818359 C21.9515625 14.38818359 12.0515625 14.38818359 1.8515625 14.38818359 Z " fill="#000000" transform="translate(15.1484375,7.61181640625)"/>
<path d="M0 0 C6.92310674 -0.27149438 10.65382318 0.60296622 15.76953125 5.265625 C17.12519343 6.58557706 18.47265189 7.91399834 19.8125 9.25 C20.50537109 9.90613281 21.19824219 10.56226563 21.91210938 11.23828125 C26.85807372 16.14038975 26.85807372 16.14038975 27.55078125 20.3359375 C26.83500796 23.79804659 25.91400028 25.00621033 23 27 C20.37109375 27.5859375 20.37109375 27.5859375 17 27 C13.90159786 24.73188361 11.32784885 22.02729142 8.6875 19.25 C7.95982422 18.52039063 7.23214844 17.79078125 6.48242188 17.0390625 C1.86345139 12.30386443 0.04950444 9.97026615 -0.0625 3.25 C-0.041875 2.1775 -0.02125 1.105 0 0 Z " fill="#000000" transform="translate(36,36)"/>
</svg>
