<?xml version="1.0" encoding="UTF-8"?>
<svg version="1.1" xmlns="http://www.w3.org/2000/svg" width="64" height="64">
<path d="M0 0 C0.83096191 -0.00945648 1.66192383 -0.01891296 2.51806641 -0.02865601 C3.41187012 -0.02258331 4.30567383 -0.01651062 5.2265625 -0.01025391 C6.14743652 -0.01312408 7.06831055 -0.01599426 8.01708984 -0.01895142 C9.96387344 -0.02099272 11.91067752 -0.01545824 13.85742188 -0.00292969 C16.84030949 0.01312303 19.82184211 -0.00277613 22.8046875 -0.02197266 C24.6953155 -0.01999024 26.58594265 -0.01614659 28.4765625 -0.01025391 C29.37036621 -0.0163266 30.26416992 -0.02239929 31.18505859 -0.02865601 C32.43150146 -0.01447128 32.43150146 -0.01447128 33.703125 0 C34.79874756 0.00358017 34.79874756 0.00358017 35.91650391 0.00723267 C38.43732304 0.50350104 39.32454845 1.3477153 40.8515625 3.38818359 C41.11309319 5.9759313 41.20114688 8.31718012 41.14453125 10.89990234 C41.14028641 11.62812698 41.13604156 12.35635162 41.13166809 13.10664368 C41.11488983 15.43003486 41.07724105 17.75255509 41.0390625 20.07568359 C41.02401447 21.65184293 41.01032627 23.22801588 40.99804688 24.80419922 C40.96498935 28.66586237 40.91321444 32.52687537 40.8515625 36.38818359 C38.88964844 35.28930664 38.88964844 35.28930664 36.8515625 33.38818359 C36.30566406 30.47729492 36.30566406 30.47729492 36.2421875 26.97021484 C36.19626465 25.27602417 36.19626465 25.27602417 36.14941406 23.54760742 C36.12572754 21.39588013 36.12572754 21.39588013 36.1015625 19.20068359 C36.0190625 14.64255859 35.9365625 10.08443359 35.8515625 5.38818359 C23.3115625 5.38818359 10.7715625 5.38818359 -2.1484375 5.38818359 C-2.1484375 17.92818359 -2.1484375 30.46818359 -2.1484375 43.38818359 C6.93096211 43.55856794 6.93096211 43.55856794 16.01098633 43.68603516 C17.14044678 43.71665039 18.26990723 43.74726562 19.43359375 43.77880859 C20.59093018 43.79975586 21.7482666 43.82070313 22.94067383 43.84228516 C25.8515625 44.38818359 25.8515625 44.38818359 27.75268555 46.42626953 C28.11531494 47.07370117 28.47794434 47.72113281 28.8515625 48.38818359 C24.20682268 48.46234426 19.56242751 48.51678974 14.91723633 48.55297852 C13.33709714 48.56806454 11.75699981 48.5885361 10.17700195 48.61450195 C7.90565665 48.65089486 5.63486491 48.66791122 3.36328125 48.68115234 C2.30375496 48.70437813 2.30375496 48.70437813 1.2228241 48.72807312 C-3.69200788 48.72975932 -3.69200788 48.72975932 -5.83479309 47.12617493 C-7.44742625 44.99261242 -7.52794981 43.89337789 -7.53662109 41.23974609 C-7.54607758 40.40878418 -7.55553406 39.57782227 -7.5652771 38.72167969 C-7.55920441 37.82787598 -7.55313171 36.93407227 -7.546875 36.01318359 C-7.54974518 35.09230957 -7.55261536 34.17143555 -7.55557251 33.22265625 C-7.55761381 31.27587265 -7.55207933 29.32906857 -7.53955078 27.38232422 C-7.52349806 24.3994366 -7.53939722 21.41790398 -7.55859375 18.43505859 C-7.55661133 16.5444306 -7.55276768 14.65380345 -7.546875 12.76318359 C-7.55294769 11.86937988 -7.55902039 10.97557617 -7.5652771 10.0546875 C-7.55582062 9.22372559 -7.54636414 8.39276367 -7.53662109 7.53662109 C-7.53423431 6.80620605 -7.53184753 6.07579102 -7.52938843 5.32324219 C-6.68783977 1.04855522 -4.04755425 0.01322621 0 0 Z " fill="#000000" transform="translate(15.1484375,7.61181640625)"/>
<path d="M0 0 C6.92310674 -0.27149438 10.65382318 0.60296622 15.76953125 5.265625 C17.12519343 6.58557706 18.47265189 7.91399834 19.8125 9.25 C20.50537109 9.90613281 21.19824219 10.56226563 21.91210938 11.23828125 C26.85807372 16.14038975 26.85807372 16.14038975 27.55078125 20.3359375 C26.83500796 23.79804659 25.91400028 25.00621033 23 27 C20.37109375 27.5859375 20.37109375 27.5859375 17 27 C13.90159786 24.73188361 11.32784885 22.02729142 8.6875 19.25 C7.95982422 18.52039063 7.23214844 17.79078125 6.48242188 17.0390625 C1.86345139 12.30386443 0.04950444 9.97026615 -0.0625 3.25 C-0.041875 2.1775 -0.02125 1.105 0 0 Z " fill="#000000" transform="translate(36,36)"/>
<path d="M0 0 C10.56 0 21.12 0 32 0 C32.495 1.485 32.495 1.485 33 3 C32.67 3.66 32.34 4.32 32 5 C21.44 5 10.88 5 0 5 C-0.33 4.01 -0.66 3.02 -1 2 C-0.67 1.34 -0.34 0.68 0 0 Z " fill="#000000" transform="translate(16,21)"/>
<path d="M0 0 C7.26 0 14.52 0 22 0 C22.33 1.32 22.66 2.64 23 4 C20.00293305 4.86963087 17.35043474 5.11763099 14.234375 5.09765625 C13.34492188 5.09443359 12.45546875 5.09121094 11.5390625 5.08789062 C10.61867188 5.07951172 9.69828125 5.07113281 8.75 5.0625 C7.81414063 5.05798828 6.87828125 5.05347656 5.9140625 5.04882812 C3.60930959 5.03706918 1.30468773 5.02063426 -1 5 C-0.67 3.35 -0.34 1.7 0 0 Z " fill="#000000" transform="translate(17,30)"/>
<path d="M0 0 C5.94 0 11.88 0 18 0 C18.33 1.32 18.66 2.64 19 4 C12.73 4 6.46 4 0 4 C0 2.68 0 1.36 0 0 Z " fill="#000000" transform="translate(16,40)"/>
</svg>
