<?xml version="1.0" standalone="no"?>
<!DOCTYPE svg PUBLIC "-//W3C//DTD SVG 20010904//EN"
 "http://www.w3.org/TR/2001/REC-SVG-20010904/DTD/svg10.dtd">
<svg version="1.0" xmlns="http://www.w3.org/2000/svg"
 width="64.000000pt" height="64.000000pt" viewBox="0 0 64.000000 64.000000"
 preserveAspectRatio="xMidYMid meet">

<g transform="translate(0.000000,64.000000) scale(0.100000,-0.100000)"
fill="#000000" stroke="none">
<path d="M367 601 c-34 -32 -39 -42 -29 -53 15 -19 3 -32 -15 -16 -12 9 -43
-18 -169 -143 -85 -84 -154 -161 -154 -170 0 -8 13 -28 29 -43 25 -24 32 -26
50 -16 47 25 100 -25 81 -76 -10 -25 -8 -31 18 -57 20 -20 36 -27 48 -23 11 3
86 73 168 155 121 121 147 152 138 164 -16 18 -3 30 16 15 11 -10 21 -5 53 29
21 23 39 48 39 56 0 7 -13 26 -29 41 -25 24 -31 26 -54 15 -22 -10 -31 -9 -53
6 -23 15 -26 22 -21 60 4 38 1 47 -22 69 -15 14 -33 26 -39 26 -7 0 -32 -18
-55 -39z m23 -106 c7 -9 10 -18 7 -22 -8 -7 -37 15 -37 28 0 14 16 11 30 -6z
m64 -77 c-3 -5 -14 -2 -25 8 -10 9 -16 21 -13 26 3 5 14 2 25 -8 10 -9 16 -21
13 -26z m46 -33 c7 -9 10 -18 7 -22 -8 -7 -37 15 -37 28 0 14 16 11 30 -6z
m-155 -33 c-5 -34 -3 -39 19 -50 34 -15 33 -30 -1 -34 -22 -2 -30 -10 -39 -43
l-11 -40 -17 33 c-14 27 -22 32 -51 32 -40 0 -43 6 -15 35 17 18 19 27 10 50
-13 35 -9 39 23 24 22 -10 30 -8 54 9 15 12 30 22 31 22 2 0 1 -17 -3 -38z"/>
</g>
</svg>
