<?xml version="1.0" standalone="no"?>
<!DOCTYPE svg PUBLIC "-//W3C//DTD SVG 20010904//EN"
 "http://www.w3.org/TR/2001/REC-SVG-20010904/DTD/svg10.dtd">
<svg version="1.0" xmlns="http://www.w3.org/2000/svg"
 width="64.000000pt" height="64.000000pt" viewBox="0 0 64.000000 64.000000"
 preserveAspectRatio="xMidYMid meet">

<g transform="translate(0.000000,64.000000) scale(0.100000,-0.100000)"
fill="#000000" stroke="none">
<path d="M203 438 c-112 -111 -203 -210 -203 -218 0 -9 13 -29 29 -44 25 -24
32 -26 50 -16 47 25 100 -25 81 -76 -10 -25 -8 -31 18 -57 20 -20 36 -27 49
-23 26 8 413 399 413 417 0 8 -13 28 -29 43 -25 24 -31 26 -54 15 -22 -10 -31
-9 -53 6 -23 15 -26 22 -21 60 4 38 1 47 -22 69 -15 14 -33 26 -41 26 -8 0
-105 -91 -217 -202z m245 160 c7 -7 9 -27 5 -54 -5 -37 -2 -46 21 -69 23 -22
34 -26 73 -23 35 2 48 -1 56 -14 9 -14 5 -24 -23 -53 -19 -19 -40 -35 -47 -35
-7 0 -13 -6 -13 -13 0 -7 -68 -80 -150 -162 -129 -129 -153 -148 -168 -139
-13 9 -16 22 -14 57 3 39 -1 50 -23 73 -22 22 -33 25 -72 22 -35 -2 -48 1 -57
14 -9 15 11 40 139 168 82 82 155 150 162 150 7 0 13 5 13 12 0 15 60 78 75
78 6 0 16 -5 23 -12z"/>
<path d="M360 501 c0 -13 29 -35 37 -28 7 8 -15 37 -28 37 -5 0 -9 -4 -9 -9z"/>
<path d="M420 448 c0 -19 26 -42 34 -30 3 5 -3 17 -14 27 -17 15 -20 16 -20 3z"/>
<path d="M470 391 c0 -13 29 -35 37 -28 7 8 -15 37 -28 37 -5 0 -9 -4 -9 -9z"/>
<path d="M317 368 c-24 -17 -32 -19 -54 -9 -32 15 -36 11 -23 -24 9 -23 7 -32
-10 -50 -28 -29 -25 -35 15 -35 29 0 37 -5 51 -32 l17 -33 11 40 c9 33 17 41
39 43 34 4 35 19 1 34 -22 11 -24 16 -19 50 4 21 5 38 3 38 -1 0 -16 -10 -31
-22z m-3 -85 c-7 -7 -19 -10 -27 -7 -19 7 -10 42 12 46 21 5 32 -23 15 -39z"/>
</g>
</svg>
