<?xml version="1.0" standalone="no"?>
<!DOCTYPE svg PUBLIC "-//W3C//DTD SVG 20010904//EN"
 "http://www.w3.org/TR/2001/REC-SVG-20010904/DTD/svg10.dtd">
<svg version="1.0" xmlns="http://www.w3.org/2000/svg"
 width="64.000000pt" height="64.000000pt" viewBox="0 0 64.000000 64.000000"
 preserveAspectRatio="xMidYMid meet">

<g transform="translate(0.000000,64.000000) scale(0.100000,-0.100000)"
fill="#000000" stroke="none">
<path d="M143 534 l-33 -14 0 -179 c0 -165 2 -180 21 -205 l20 -26 169 0 169
0 20 26 c12 15 21 39 21 54 0 37 -35 80 -66 80 l-24 0 0 125 0 125 -37 15
c-28 12 -44 13 -60 6 -16 -7 -30 -7 -47 0 -17 8 -29 8 -45 0 -15 -8 -27 -9
-40 -1 -24 12 -28 12 -68 -6z m217 -89 c0 -12 -16 -15 -85 -15 -69 0 -85 3
-85 15 0 12 16 15 85 15 69 0 85 -3 85 -15z m0 -60 c0 -12 -16 -15 -85 -15
-69 0 -85 3 -85 15 0 12 16 15 85 15 69 0 85 -3 85 -15z m0 -60 c0 -12 -16
-15 -85 -15 -69 0 -85 3 -85 15 0 12 16 15 85 15 69 0 85 -3 85 -15z m-165
-115 c8 -26 -3 -60 -20 -60 -17 0 -28 34 -20 60 3 11 12 20 20 20 8 0 17 -9
20 -20z m290 0 c3 -11 3 -29 0 -40 -6 -19 -15 -20 -128 -20 l-122 0 0 40 0 40
122 0 c113 0 122 -1 128 -20z"/>
</g>
</svg>
