<?xml version="1.0" encoding="UTF-8"?>
<svg version="1.1" xmlns="http://www.w3.org/2000/svg" width="64" height="64">
<path d="M0 0 C4.98776976 2.40260066 9.05285178 5.49048252 12 10.1875 C13.13078353 14.4986122 13.75250785 18.79285299 14.39453125 23.19921875 C15.16146203 26.74689208 16.90957517 29.07340524 19 32 C19 33.98 19 35.96 19 38 C4.48 38 -10.04 38 -25 38 C-25 31.48848845 -24.35487691 31.01353806 -21 26 C-20.03868226 22.67572891 -19.67409386 19.25791608 -19.22265625 15.83398438 C-18.34673165 10.14047445 -16.48832841 7.04002632 -12.0703125 3.41796875 C-11.42835937 3.01191406 -10.78640625 2.60585937 -10.125 2.1875 C-9.48820312 1.76855469 -8.85140625 1.34960938 -8.1953125 0.91796875 C-5.25077868 -0.31328649 -3.16957064 -0.33916425 0 0 Z " fill="#000000" transform="translate(35,12)"/>
<path d="M0 0 C2.0625 -0.4375 2.0625 -0.4375 5 0 C9.12694011 3.13505751 12.80976414 6.84231128 14 12 C14.125 15.3125 14.125 15.3125 14 18 C11.6875 18 11.6875 18 9 17 C8.08719883 15.06594605 7.51825212 13.10593713 6.890625 11.0625 C5.87255674 8.70486825 4.85053014 7.77376085 2.8125 6.25 C1.884375 5.5075 0.95625 4.765 0 4 C0 2.68 0 1.36 0 0 Z " fill="#000000" transform="translate(41,9)"/>
<path d="M0 0 C1.2065625 0.0309375 1.2065625 0.0309375 2.4375 0.0625 C2.25 2.3125 2.25 2.3125 1.4375 5.0625 C0.674375 5.64 -0.08875 6.2175 -0.875 6.8125 C-4.59577643 9.92756864 -5.85698683 13.60339293 -7.5625 18.0625 C-8.8825 18.0625 -10.2025 18.0625 -11.5625 18.0625 C-11.65413721 12.40717518 -10.87480877 8.86596511 -7.0625 4.5625 C-5.91479981 3.3771703 -4.75226207 2.20560474 -3.5625 1.0625 C-2.5625 0.0625 -2.5625 0.0625 0 0 Z " fill="#000000" transform="translate(20.5625,8.9375)"/>
<path d="M0 0 C4.62 0 9.24 0 14 0 C11 4 11 4 9.0625 4.53125 C8.0415625 4.51578125 8.0415625 4.51578125 7 4.5 C6.319375 4.5103125 5.63875 4.520625 4.9375 4.53125 C3 4 3 4 0 0 Z " fill="#000000" transform="translate(25,52)"/>
</svg>
