<?xml version="1.0" encoding="UTF-8"?>
<svg version="1.1" xmlns="http://www.w3.org/2000/svg" width="64" height="64">
<path d="M0 0 C4.98776976 2.40260066 9.05285178 5.49048252 12 10.1875 C13.13078353 14.4986122 13.75250785 18.79285299 14.39453125 23.19921875 C15.16146203 26.74689208 16.90957517 29.07340524 19 32 C19 33.98 19 35.96 19 38 C14.05 38 9.1 38 4 38 C3.67 39.32 3.34 40.64 3 42 C1 44 1 44 -2.9375 44.3125 C-5.62386205 44.24424398 -6.71907595 44.18435641 -9 42.6875 C-10 41 -10 41 -10 38 C-14.95 38 -19.9 38 -25 38 C-25 31.48848845 -24.35487691 31.01353806 -21 26 C-20.03868226 22.67572891 -19.67409386 19.25791608 -19.22265625 15.83398438 C-18.34673165 10.14047445 -16.48832841 7.04002632 -12.0703125 3.41796875 C-11.42835937 3.01191406 -10.78640625 2.60585937 -10.125 2.1875 C-9.48820312 1.76855469 -8.85140625 1.34960938 -8.1953125 0.91796875 C-5.25077868 -0.31328649 -3.16957064 -0.33916425 0 0 Z M-11.57421875 10.1171875 C-13.78860124 13.04138574 -14.02684864 16.39712974 -14.5625 19.9375 C-16.17508013 30.17508013 -16.17508013 30.17508013 -20 34 C-8.78 34 2.44 34 14 34 C12.68 32.02 11.36 30.04 10 28 C9.33398438 25.91357422 9.33398438 25.91357422 9.09375 24.0546875 C8.98933594 23.37019531 8.88492188 22.68570313 8.77734375 21.98046875 C8.59143632 20.5691433 8.40655134 19.15768282 8.22265625 17.74609375 C7.53085208 13.22801469 6.68625934 10.78169754 3 8 C-3.27122629 5.32892214 -6.18464172 6.29232639 -11.57421875 10.1171875 Z M-5 38 C-1 39 -1 39 -1 39 Z " fill="#000000" transform="translate(35,12)"/>
<path d="M0 0 C2.0625 -0.4375 2.0625 -0.4375 5 0 C9.12694011 3.13505751 12.80976414 6.84231128 14 12 C14.125 15.3125 14.125 15.3125 14 18 C11.6875 18 11.6875 18 9 17 C8.08719883 15.06594605 7.51825212 13.10593713 6.890625 11.0625 C5.87255674 8.70486825 4.85053014 7.77376085 2.8125 6.25 C1.884375 5.5075 0.95625 4.765 0 4 C0 2.68 0 1.36 0 0 Z " fill="#000000" transform="translate(41,9)"/>
<path d="M0 0 C1.2065625 0.0309375 1.2065625 0.0309375 2.4375 0.0625 C2.25 2.3125 2.25 2.3125 1.4375 5.0625 C0.674375 5.64 -0.08875 6.2175 -0.875 6.8125 C-4.59577643 9.92756864 -5.85698683 13.60339293 -7.5625 18.0625 C-8.8825 18.0625 -10.2025 18.0625 -11.5625 18.0625 C-11.65413721 12.40717518 -10.87480877 8.86596511 -7.0625 4.5625 C-5.91479981 3.3771703 -4.75226207 2.20560474 -3.5625 1.0625 C-2.5625 0.0625 -2.5625 0.0625 0 0 Z " fill="#000000" transform="translate(20.5625,8.9375)"/>
</svg>
