<?xml version="1.0" standalone="no"?>
<!DOCTYPE svg PUBLIC "-//W3C//DTD SVG 20010904//EN"
 "http://www.w3.org/TR/2001/REC-SVG-20010904/DTD/svg10.dtd">
<svg version="1.0" xmlns="http://www.w3.org/2000/svg"
 width="64.000000pt" height="64.000000pt" viewBox="0 0 64.000000 64.000000"
 preserveAspectRatio="xMidYMid meet">

<g transform="translate(0.000000,64.000000) scale(0.100000,-0.100000)"
fill="#000000" stroke="none">
<path d="M295 455 c-130 -51 -210 -88 -210 -96 0 -14 72 -53 118 -64 17 -5 42
7 100 46 43 28 80 49 83 46 4 -3 -17 -41 -46 -83 -38 -58 -50 -83 -45 -101 11
-46 50 -118 64 -118 16 0 184 422 176 443 -2 6 -10 12 -17 11 -7 -1 -107 -38
-223 -84z"/>
</g>
</svg>
